<mxfile host="Electron" agent="Mozilla/5.0 (Macintosh; Intel Mac OS X 10_15_7) AppleWebKit/537.36 (KHTML, like Gecko) draw.io/24.7.8 Chrome/128.0.6613.36 Electron/32.0.1 Safari/537.36" version="24.7.8">
  <diagram name="Page-1" id="e56a1550-8fbb-45ad-956c-1786394a9013">
    <mxGraphModel dx="1266" dy="695" grid="1" gridSize="10" guides="1" tooltips="1" connect="1" arrows="1" fold="1" page="1" pageScale="1" pageWidth="1100" pageHeight="850" background="none" math="0" shadow="0">
      <root>
        <mxCell id="0" />
        <mxCell id="1" parent="0" />
        <mxCell id="koYQR5GFtiZW-WoiUXTi-1" value="&lt;h1 style=&quot;margin-top: 0px;&quot;&gt;Fachliches Datenmodell&lt;/h1&gt;&lt;p&gt;&lt;br&gt;&lt;/p&gt;" style="text;html=1;whiteSpace=wrap;overflow=hidden;rounded=0;" vertex="1" parent="1">
          <mxGeometry x="20" y="10" width="370" height="120" as="geometry" />
        </mxCell>
        <mxCell id="koYQR5GFtiZW-WoiUXTi-2" value="Authentication" style="whiteSpace=wrap;html=1;align=center;" vertex="1" parent="1">
          <mxGeometry x="430" y="493" width="100" height="40" as="geometry" />
        </mxCell>
        <mxCell id="koYQR5GFtiZW-WoiUXTi-3" value="User" style="whiteSpace=wrap;html=1;align=center;" vertex="1" parent="1">
          <mxGeometry x="430" y="400" width="100" height="40" as="geometry" />
        </mxCell>
        <mxCell id="koYQR5GFtiZW-WoiUXTi-4" value="Role" style="whiteSpace=wrap;html=1;align=center;" vertex="1" parent="1">
          <mxGeometry x="430" y="290" width="100" height="40" as="geometry" />
        </mxCell>
        <mxCell id="koYQR5GFtiZW-WoiUXTi-5" value="" style="endArrow=none;html=1;rounded=0;entryX=0.5;entryY=1;entryDx=0;entryDy=0;" edge="1" parent="1" source="koYQR5GFtiZW-WoiUXTi-3" target="koYQR5GFtiZW-WoiUXTi-4">
          <mxGeometry relative="1" as="geometry">
            <mxPoint x="400" y="420" as="sourcePoint" />
            <mxPoint x="560" y="420" as="targetPoint" />
          </mxGeometry>
        </mxCell>
        <mxCell id="koYQR5GFtiZW-WoiUXTi-6" value="M" style="resizable=0;html=1;whiteSpace=wrap;align=left;verticalAlign=bottom;" connectable="0" vertex="1" parent="koYQR5GFtiZW-WoiUXTi-5">
          <mxGeometry x="-1" relative="1" as="geometry" />
        </mxCell>
        <mxCell id="koYQR5GFtiZW-WoiUXTi-7" value="1" style="resizable=0;html=1;whiteSpace=wrap;align=right;verticalAlign=bottom;" connectable="0" vertex="1" parent="koYQR5GFtiZW-WoiUXTi-5">
          <mxGeometry x="1" relative="1" as="geometry">
            <mxPoint y="17" as="offset" />
          </mxGeometry>
        </mxCell>
        <mxCell id="koYQR5GFtiZW-WoiUXTi-8" value="Group" style="whiteSpace=wrap;html=1;align=center;" vertex="1" parent="1">
          <mxGeometry x="610" y="400" width="100" height="40" as="geometry" />
        </mxCell>
        <mxCell id="koYQR5GFtiZW-WoiUXTi-15" value="" style="endArrow=none;html=1;rounded=0;entryX=0;entryY=0.5;entryDx=0;entryDy=0;exitX=1;exitY=0.5;exitDx=0;exitDy=0;" edge="1" parent="1" source="koYQR5GFtiZW-WoiUXTi-3" target="koYQR5GFtiZW-WoiUXTi-8">
          <mxGeometry relative="1" as="geometry">
            <mxPoint x="500" y="430" as="sourcePoint" />
            <mxPoint x="560" y="420" as="targetPoint" />
          </mxGeometry>
        </mxCell>
        <mxCell id="koYQR5GFtiZW-WoiUXTi-16" value="M" style="resizable=0;html=1;whiteSpace=wrap;align=left;verticalAlign=bottom;" connectable="0" vertex="1" parent="koYQR5GFtiZW-WoiUXTi-15">
          <mxGeometry x="-1" relative="1" as="geometry" />
        </mxCell>
        <mxCell id="koYQR5GFtiZW-WoiUXTi-17" value="N" style="resizable=0;html=1;whiteSpace=wrap;align=right;verticalAlign=bottom;" connectable="0" vertex="1" parent="koYQR5GFtiZW-WoiUXTi-15">
          <mxGeometry x="1" relative="1" as="geometry" />
        </mxCell>
        <mxCell id="koYQR5GFtiZW-WoiUXTi-18" value="Permission" style="whiteSpace=wrap;html=1;align=center;" vertex="1" parent="1">
          <mxGeometry x="760" y="400" width="100" height="40" as="geometry" />
        </mxCell>
        <mxCell id="koYQR5GFtiZW-WoiUXTi-19" value="" style="endArrow=none;html=1;rounded=0;entryX=0;entryY=0.5;entryDx=0;entryDy=0;" edge="1" parent="1" target="koYQR5GFtiZW-WoiUXTi-18">
          <mxGeometry relative="1" as="geometry">
            <mxPoint x="710" y="420" as="sourcePoint" />
            <mxPoint x="560" y="420" as="targetPoint" />
          </mxGeometry>
        </mxCell>
        <mxCell id="koYQR5GFtiZW-WoiUXTi-20" value="M" style="resizable=0;html=1;whiteSpace=wrap;align=left;verticalAlign=bottom;" connectable="0" vertex="1" parent="koYQR5GFtiZW-WoiUXTi-19">
          <mxGeometry x="-1" relative="1" as="geometry" />
        </mxCell>
        <mxCell id="koYQR5GFtiZW-WoiUXTi-21" value="N" style="resizable=0;html=1;whiteSpace=wrap;align=right;verticalAlign=bottom;" connectable="0" vertex="1" parent="koYQR5GFtiZW-WoiUXTi-19">
          <mxGeometry x="1" relative="1" as="geometry" />
        </mxCell>
        <mxCell id="koYQR5GFtiZW-WoiUXTi-28" value="" style="endArrow=none;html=1;rounded=0;exitX=0.5;exitY=0;exitDx=0;exitDy=0;entryX=0.5;entryY=1;entryDx=0;entryDy=0;" edge="1" parent="1" source="koYQR5GFtiZW-WoiUXTi-2" target="koYQR5GFtiZW-WoiUXTi-3">
          <mxGeometry relative="1" as="geometry">
            <mxPoint x="400" y="420" as="sourcePoint" />
            <mxPoint x="560" y="420" as="targetPoint" />
          </mxGeometry>
        </mxCell>
        <mxCell id="koYQR5GFtiZW-WoiUXTi-29" value="1" style="resizable=0;html=1;whiteSpace=wrap;align=left;verticalAlign=bottom;" connectable="0" vertex="1" parent="koYQR5GFtiZW-WoiUXTi-28">
          <mxGeometry x="-1" relative="1" as="geometry" />
        </mxCell>
        <mxCell id="koYQR5GFtiZW-WoiUXTi-30" value="1" style="resizable=0;html=1;whiteSpace=wrap;align=right;verticalAlign=bottom;" connectable="0" vertex="1" parent="koYQR5GFtiZW-WoiUXTi-28">
          <mxGeometry x="1" relative="1" as="geometry">
            <mxPoint y="18" as="offset" />
          </mxGeometry>
        </mxCell>
        <mxCell id="koYQR5GFtiZW-WoiUXTi-31" value="Chat" style="whiteSpace=wrap;html=1;align=center;" vertex="1" parent="1">
          <mxGeometry x="240" y="400" width="100" height="40" as="geometry" />
        </mxCell>
        <mxCell id="koYQR5GFtiZW-WoiUXTi-32" value="" style="endArrow=none;html=1;rounded=0;exitX=1;exitY=0.5;exitDx=0;exitDy=0;entryX=0;entryY=0.5;entryDx=0;entryDy=0;" edge="1" parent="1" source="koYQR5GFtiZW-WoiUXTi-31" target="koYQR5GFtiZW-WoiUXTi-3">
          <mxGeometry relative="1" as="geometry">
            <mxPoint x="470" y="340" as="sourcePoint" />
            <mxPoint x="630" y="340" as="targetPoint" />
          </mxGeometry>
        </mxCell>
        <mxCell id="koYQR5GFtiZW-WoiUXTi-33" value="M" style="resizable=0;html=1;whiteSpace=wrap;align=left;verticalAlign=bottom;" connectable="0" vertex="1" parent="koYQR5GFtiZW-WoiUXTi-32">
          <mxGeometry x="-1" relative="1" as="geometry" />
        </mxCell>
        <mxCell id="koYQR5GFtiZW-WoiUXTi-34" value="N" style="resizable=0;html=1;whiteSpace=wrap;align=right;verticalAlign=bottom;" connectable="0" vertex="1" parent="koYQR5GFtiZW-WoiUXTi-32">
          <mxGeometry x="1" relative="1" as="geometry" />
        </mxCell>
        <mxCell id="koYQR5GFtiZW-WoiUXTi-35" value="User" style="whiteSpace=wrap;html=1;align=center;" vertex="1" parent="1">
          <mxGeometry x="420" y="630" width="100" height="40" as="geometry" />
        </mxCell>
      </root>
    </mxGraphModel>
  </diagram>
</mxfile>
